<?xml version="1.0" encoding="UTF-8"?> <svg xmlns="http://www.w3.org/2000/svg" width="50" height="50" viewBox="0 0 50 50" fill="none"> <path d="M25.1 -9.52166e-05C11.45 -9.52166e-05 0.325 11.1249 0.325 24.7749C0.325 29.1499 1.475 33.3999 3.625 37.1499L0.125 49.9999L13.25 46.5499C16.875 48.5249 20.95 49.5749 25.1 49.5749C38.75 49.5749 49.875 38.4499 49.875 24.7999C49.875 18.1749 47.3 11.9499 42.625 7.2749C40.333 4.95972 37.603 3.12407 34.5941 1.87503C31.5852 0.625991 28.3578 -0.0114444 25.1 -9.52166e-05ZM25.125 4.17491C30.625 4.17491 35.775 6.32491 39.675 10.2249C41.589 12.1383 43.1065 14.4107 44.1404 16.9118C45.1743 19.4129 45.7043 22.0935 45.7 24.7999C45.7 36.1499 36.45 45.3749 25.1 45.3749C21.4 45.3749 17.775 44.3999 14.625 42.4999L13.875 42.0749L6.075 44.1249L8.15 36.5249L7.65 35.7249C5.58485 32.4466 4.49253 28.6495 4.5 24.7749C4.525 13.4249 13.75 4.17491 25.125 4.17491ZM16.325 13.3249C15.925 13.3249 15.25 13.4749 14.675 14.0999C14.125 14.7249 12.5 16.2499 12.5 19.2749C12.5 22.3249 14.725 25.2499 15 25.6749C15.35 26.0999 19.4 32.3499 25.625 34.9999C27.1 35.6749 28.25 36.0499 29.15 36.3249C30.625 36.7999 31.975 36.7249 33.05 36.5749C34.25 36.3999 36.7 35.0749 37.225 33.6249C37.75 32.1749 37.75 30.9499 37.6 30.6749C37.425 30.4249 37.025 30.2749 36.4 29.9999C35.775 29.6499 32.725 28.1499 32.175 27.9499C31.6 27.7499 31.25 27.6499 30.775 28.2499C30.375 28.8749 29.175 30.2749 28.825 30.6749C28.45 31.0999 28.1 31.1499 27.5 30.8499C26.85 30.5249 24.85 29.8749 22.5 27.7749C20.65 26.1249 19.425 24.0999 19.05 23.4749C18.75 22.8749 19.025 22.4999 19.325 22.2249C19.6 21.9499 20 21.4999 20.25 21.1249C20.575 20.7749 20.675 20.4999 20.875 20.0999C21.075 19.6749 20.975 19.3249 20.825 19.0249C20.675 18.7499 19.425 15.6499 18.9 14.4249C18.4 13.2249 17.9 13.3749 17.5 13.3499C17.15 13.3499 16.75 13.3249 16.325 13.3249Z" fill="white"></path> </svg> 